# xmcd
#
# Track frame offsets: 
#        150
#        9635
#        19006
#        33929
#        43751
#        61912
#        74680
#        86499
#        104658
#        120448
#        134522
#        151439
#
# Disc length: 2261 seconds
#
# Revision: 1
# Processed by: cddbd v1.5.2PL0 Copyright (c) Steve Scherf et al.
# Submitted via: ExactAudioCopyFreeDBPlugin 1.0
#
DISCID=a008d30c
DTITLE=Sturgill Simpson - High Top Mountain
DYEAR=2013
DGENRE=Country
TTITLE0=Life Ain't Fair and The World Is Mean
TTITLE1=Railroad Of Sin
TTITLE2=Water In A Well
TTITLE3=Sittin' Here Without You
TTITLE4=The Storm
TTITLE5=You Can Have The Crown
TTITLE6=Time After All
TTITLE7=Hero
TTITLE8=Some Days
TTITLE9=Old King Coal
TTITLE10=Poor Rambler
TTITLE11=I'd Have To Be Crazy
EXTD=YEAR: 2013
EXTT0=
EXTT1=
EXTT2=
EXTT3=
EXTT4=
EXTT5=
EXTT6=
EXTT7=
EXTT8=
EXTT9=
EXTT10=
EXTT11=
PLAYORDER=
